<svg xmlns="http://www.w3.org/2000/svg" xmlns:xlink="http://www.w3.org/1999/xlink" version="1.1" x="0px" y="0px" viewBox="0 0 157.6 142.1" enable-background="new 0 0 157.6 142.1" xml:space="preserve" style="fill: rgb(0, 0, 0);" original_string_length="920">
<g id="__id2_srjeb64v4s"><polygon id="__id3_srjeb64v4s" points="143.3,28.6 143.3,14.3 129,14.3 129,0 100.4,0 100.4,14.3 86.1,14.3 86.1,28.6   85.8,28.6 71.8,28.6 71.5,28.6 71.5,14.3 57.2,14.3 57.2,0 28.6,0 28.6,14.3 14.3,14.3 14.3,28.6 0,28.6 0,42 0,57.2 0,70.6   14.3,70.6 14.3,84.9 28.6,84.9 28.6,99.2 42.9,99.2 42.9,113.5 57.2,113.5 57.2,127.8 71.5,127.8 71.5,142.1 71.8,142.1 85.8,142.1   86.1,142.1 86.1,127.8 100.4,127.8 100.4,113.5 114.7,113.5 114.7,99.2 129,99.2 129,84.9 143.3,84.9 143.3,70.6 157.6,70.6   157.6,57.2 157.6,42 157.6,28.6 " style="fill: rgb(255, 0, 0);"/></g>
</svg>